<svg id="Layer_1" data-name="Layer 1" xmlns="http://www.w3.org/2000/svg" viewBox="0 0 105.88 20.3"><defs><style>.cls-1{font-size:16.62px;font-family:Futura-Bold, Futura;font-weight:700;letter-spacing:-0.03em;}.cls-1,.cls-2{fill:#fff;}</style></defs><text class="cls-1" transform="translate(20.4 14.58)">GamesBit.</text><path class="cls-2" d="M167.16,358.33h0L166,352.21h0a4.35,4.35,0,0,0-4.27-3.56h0l-6.36,0a4.34,4.34,0,0,0-4.28,3.58v0l-1.18,6.06h0a2.61,2.61,0,0,0,4.41,2.3l0,0,2.94-3.25h2.52l2.95,3.26,0,0a2.6,2.6,0,0,0,4.4-2.3Zm-10.37-4.75h-.58v.57a.58.58,0,1,1-1.16,0v-.57h-.58a.58.58,0,1,1,0-1.16h.58v-.58a.58.58,0,1,1,1.16,0v.58h.58a.58.58,0,0,1,0,1.16Zm2.89-.58a.58.58,0,0,1,.58-.58h2.31a.58.58,0,1,1,0,1.16h-2.31A.58.58,0,0,1,159.68,353Zm5.17,7.21a1.46,1.46,0,0,1-1.26-.39l-2.25-2.5h.37a4.34,4.34,0,0,0,3.68-2.05l.63,3.27A1.44,1.44,0,0,1,164.85,360.21Z" transform="translate(-149.84 -346.4)"/></svg>